<svg xmlns="http://www.w3.org/2000/svg" xmlns:xlink="http://www.w3.org/1999/xlink" width="20" height="20" preserveAspectRatio="xMidYMid meet" viewBox="0 0 48 48" style="-ms-transform: rotate(360deg); -webkit-transform: rotate(360deg); transform: rotate(360deg);"><path fill="none" stroke="#717275" stroke-linecap="round" stroke-linejoin="round" d="M41.47 7.28H6.53a2 2 0 0 0-2 1.88v22.25a2 2 0 0 0 2 1.88h2.61v7.43l8.26-7.43h24.07a2 2 0 0 0 2-1.88V9.16a2 2 0 0 0-2-1.88ZM14.25 17A3.25 3.25 0 1 1 11 20.29A3.24 3.24 0 0 1 14.25 17ZM24 23.54a3.25 3.25 0 1 1 3.25-3.25A3.26 3.26 0 0 1 24 23.54Zm9.75 0A3.25 3.25 0 1 1 37 20.29a3.26 3.26 0 0 1-3.25 3.25Z"/></svg>