<svg xmlns="http://www.w3.org/2000/svg" xmlns:xlink="http://www.w3.org/1999/xlink" width="20" height="20" preserveAspectRatio="xMidYMid meet" viewBox="0 0 32 32" style="-ms-transform: rotate(360deg); -webkit-transform: rotate(360deg); transform: rotate(360deg);"><path fill="#717275" d="M28 10h-4V2h-2v8h-9V8h-2v2H8V8H6v2H4a2 2 0 0 0-2 2v16a2 2 0 0 0 2 2h24a2 2 0 0 0 2-2V12a2 2 0 0 0-2-2ZM4 28V12h24v16Z"/><path fill="#717275" d="M10 26a4 4 0 1 1 4-4a4 4 0 0 1-4 4zm0-6a2 2 0 1 0 2 2a2 2 0 0 0-2-2zm-3-6h6v2H7zm10 2h9v2h-9zm0 4h9v2h-9zm0 4h9v2h-9z"/></svg>